<svg width="92" height="92" fill="none" xmlns="http://www.w3.org/2000/svg"><path d="M69 69c12.703-12.703 12.703-33.297 0-46-12.703-12.703-33.297-12.703-46 0-12.703 12.703-12.703 33.297 0 46 12.703 12.703 33.297 12.703 46 0z" fill="#EAFC52"/><path d="M63.601 68.075l-1.047-1.184-3.714-4.203-12.264 5.928-.147 6.75-.006.248a17.84 17.84 0 004.225-.609 29.235 29.235 0 0013.77-6.125l-.783-.835-.034.03zM34.176 61.54l11.214 5.42-.128-5.894-8.213-2.78-2.874 3.252zm12.434 5.419l11.215-5.42-2.877-3.252-8.21 2.78-.128 5.892zm8.066-13.739l-.025.03a6.16 6.16 0 01-2.736 1.798l-5.08 1.641-.06 2.812 7.979-2.703 13.41-15.506a5.202 5.202 0 01-1.356-1.895L54.676 53.221zm-18.831 4.206L22.636 42.153l-.506.334a19.802 19.802 0 00-4.589 4.185l-.86 1.079c.034.564.082 1.127.147 1.683.854 7.319 4.396 13.817 9.616 18.477l1.97-2.077 7.43-8.408zM74.46 46.672a19.844 19.844 0 00-4.589-4.185l-.506-.334-13.208 15.273 7.43 8.408 1.955 2.088c5.227-4.663 8.775-11.165 9.63-18.49.064-.556.112-1.117.146-1.683l-.858-1.077zM45.431 68.616l-12.266-5.928-3.714 4.203-1.047 1.184-.044-.038-.79.829a29.242 29.242 0 0013.786 6.137 17.84 17.84 0 004.226.609l-.006-.248-.145-6.748zm-.2-9.116l-.06-2.811-4.988-1.611-.092-.03a6.172 6.172 0 01-2.737-1.798l-.063-.074L25.2 39.397a5.176 5.176 0 01-1.355 1.893l13.41 15.506 7.977 2.705z" fill="#000"/><path d="M53.81 51.971l12.513-14.258a14.9 14.9 0 00-2.075-4.471l-.445-.648a5.273 5.273 0 01-.848-2.478l-.099-1.26a48.241 48.241 0 00-1.546-8.923l-.541-1.991a7.96 7.96 0 00-1.947-3.435A34.574 34.574 0 0048.258 7.03l-.63-.285a3.925 3.925 0 00-1.502-.346l.243 7.073.11 3.158.344 10.07c.256-.034.512-.084.761-.151l6.045-1.608c.378-.1.764-.15 1.152-.15a4.456 4.456 0 014.352 3.447l1.205 5.109a5.983 5.983 0 01-.492 4.1 30.429 30.429 0 01-8.105 9.94 7.474 7.474 0 01-2.365 1.269l-1.34.436a6.553 6.553 0 01-4.067 0l-1.34-.436a7.548 7.548 0 01-2.41-1.305 30.456 30.456 0 01-8.067-9.919 5.964 5.964 0 01-.483-4.083l1.204-5.11a4.456 4.456 0 014.352-3.447c.388 0 .774.05 1.152.151l6.045 1.608c.252.067.506.117.762.15l.344-10.069.107-3.15.243-7.081a3.927 3.927 0 00-1.504.346 38.247 38.247 0 00-11.192 7.762 7.41 7.41 0 00-1.672 2.58c-.09.234-.172.47-.238.714l-.58 2.134a48.241 48.241 0 00-1.546 8.922l-.1 1.259a5.257 5.257 0 01-.848 2.478l-.444.648a14.953 14.953 0 00-2.076 4.471L38.19 51.973a6.16 6.16 0 002.736 1.798L46 55.411l5.074-1.64a6.182 6.182 0 002.736-1.8z" fill="#000"/><path d="M44.528 28.086a8.134 8.134 0 01-.485-.111l-6.045-1.608c-.09-.025-.183-.041-.273-.058l-.06-.01a2.864 2.864 0 00-.267-.028c-.013 0-.027 0-.04-.002-.044-.002-.088-.004-.132-.004-.027 0-.055.002-.084.004a2.687 2.687 0 00-.287.023c-.032.004-.064.006-.095.013a4.016 4.016 0 00-.218.044l-.053.01a3.83 3.83 0 00-.262.08l-.065.025c-.063.025-.126.05-.187.078-.03.012-.056.027-.086.042-.052.027-.107.054-.157.084a.818.818 0 00-.086.052l-.15.099-.079.056c-.052.04-.105.084-.155.126l-.057.048a3.38 3.38 0 00-.195.194l-.032.037c-.05.057-.098.116-.144.174-.02.026-.036.05-.055.078-.036.05-.069.1-.103.153-.019.03-.035.061-.052.09-.03.053-.059.105-.084.16-.015.031-.032.063-.046.094-.027.06-.05.12-.074.18-.01.03-.023.057-.033.087-.032.09-.059.184-.082.279l-.229.974-.973 4.133a4.638 4.638 0 00-.12 1.17v.007a4.456 4.456 0 00.48 1.897 28.85 28.85 0 002.867 4.526 29.197 29.197 0 004.811 4.916c.58.466 1.236.823 1.941 1.051l1.34.437a5.065 5.065 0 003.152 0l1.341-.437c.048-.014.093-.035.14-.052.24-.086.473-.183.7-.296a5.95 5.95 0 001.061-.67 29.243 29.243 0 003.865-3.734 29.564 29.564 0 001.876-2.428 28.753 28.753 0 001.974-3.3 4.501 4.501 0 00.368-3.091l-1.205-5.11a2.897 2.897 0 00-.189-.545 4.009 4.009 0 00-.13-.254c-.016-.031-.035-.06-.054-.09a3.594 3.594 0 00-.1-.151c-.02-.025-.037-.053-.058-.078a4.392 4.392 0 00-.14-.172c-.013-.012-.023-.027-.034-.04a2.792 2.792 0 00-.193-.193l-.059-.05a2.968 2.968 0 00-.377-.28l-.09-.054a2.19 2.19 0 00-.156-.082l-.088-.044a3.356 3.356 0 00-.182-.075c-.023-.009-.047-.02-.07-.027a3.72 3.72 0 00-.316-.093 2.567 2.567 0 00-.494-.071c-.035-.002-.069-.004-.105-.004-.027 0-.054-.005-.083-.005-.044 0-.089.003-.133.005-.012 0-.027 0-.04.002a2.86 2.86 0 00-.266.027 2.505 2.505 0 00-.334.07l-6.045 1.607a7.556 7.556 0 01-2.45.237 7.033 7.033 0 01-.98-.122zm-1.026 3.07s-.773.463-1.771.699c-1.024.239-2.08-.267-2.575-1.195l-.262-.488 4.608.984zm2.001 14.553a4.041 4.041 0 01-1.756-.826l-2.631-2.143a9.258 9.258 0 01-3.23-5.35l-1.061-5.278c1.418 2.986 6.496 4.17 8.424 4.518l.643 9.159-.389-.08zm7.609-15.537l-.263.488c-.497.928-1.55 1.434-2.574 1.195a6.787 6.787 0 01-1.771-.7l4.608-.983zm2.064 1.938l-1.06 5.278a9.236 9.236 0 01-3.228 5.35l-2.632 2.142a4.022 4.022 0 01-1.754.827l-.39.078.642-9.16c1.928-.345 7.006-1.529 8.422-4.515z" fill="#000"/><path d="M40.22 47.348a7.588 7.588 0 002.409 1.305l1.34.437a6.553 6.553 0 004.067 0l1.341-.437a7.432 7.432 0 002.365-1.27 30.43 30.43 0 008.105-9.939 5.993 5.993 0 00.491-4.1l-1.204-5.11a4.456 4.456 0 00-4.352-3.447c-.388 0-.774.05-1.152.152l-6.045 1.607a5.83 5.83 0 01-.762.15l-.344-10.069-.109-3.158-.243-7.073h-.01c-.038-.002-.074-.006-.112-.006-.04 0-.08.004-.12.006h-.004l-.243 7.082-.107 3.15-.344 10.069a5.903 5.903 0 01-.762-.151l-6.045-1.607a4.464 4.464 0 00-1.152-.152 4.456 4.456 0 00-4.352 3.448l-1.204 5.11a5.962 5.962 0 00.482 4.082 30.36 30.36 0 008.066 9.92zm-7.237-12.491a4.625 4.625 0 01.12-1.17l.974-4.134.228-.974a2.877 2.877 0 01.189-.546l.046-.094c.028-.055.055-.107.084-.16l.053-.09c.031-.052.067-.102.102-.153.02-.025.036-.052.055-.078a2.89 2.89 0 01.176-.211c.061-.067.126-.133.195-.193l.057-.049a2.907 2.907 0 01.627-.417c.03-.015.057-.03.086-.042a2.91 2.91 0 01.187-.078c.021-.008.044-.019.065-.025a2.9 2.9 0 01.263-.08l.052-.01a3.729 3.729 0 01.313-.057c.06-.008.121-.015.182-.019.036-.002.07-.004.105-.004.027 0 .055-.004.084-.004.044 0 .088.002.132.004a2.94 2.94 0 01.306.03c.021.002.04.006.061.01.09.015.183.033.273.059l6.045 1.607c.16.042.321.08.485.111a7.409 7.409 0 001.475.145 7.855 7.855 0 001.958-.254l6.045-1.607c.09-.025.182-.042.273-.059l.06-.01a2.86 2.86 0 01.267-.028c.012 0 .027 0 .04-.002.044-.002.088-.004.132-.004.027 0 .055.002.084.004.035 0 .071.002.105.004.06.005.121.01.182.017.032.004.065.006.097.013.071.01.142.025.214.042.019.004.038.006.056.012.089.023.177.05.26.08.024.008.047.019.07.027.06.023.124.049.183.076l.088.044a2.766 2.766 0 01.623.415l.058.05c.068.061.133.127.194.194.012.012.023.027.033.04.048.054.097.11.14.172.02.025.038.052.057.077.036.05.07.101.101.151.019.03.036.061.055.09.029.053.056.105.084.16.014.032.031.063.046.094.027.06.05.12.073.18.01.03.023.057.034.087.031.09.058.185.082.279l1.204 5.11a4.48 4.48 0 01-.367 3.09 29.315 29.315 0 01-3.85 5.728 29.243 29.243 0 01-3.865 3.735 5.876 5.876 0 01-1.062.67c-.227.113-.46.21-.699.295-.046.017-.092.038-.14.053l-1.341.436a5.065 5.065 0 01-3.152 0l-1.34-.436a6.12 6.12 0 01-1.942-1.051 29.192 29.192 0 01-7.677-9.443 4.456 4.456 0 01-.48-1.896l-.003-.013z" fill="#EAFC52"/><path d="M48.257 44.883l2.631-2.142a9.258 9.258 0 003.23-5.35l1.059-5.278c-1.418 2.986-6.494 4.17-8.422 4.518l-.643 9.158.39-.077a4.085 4.085 0 001.755-.829zm-7.14-2.142l2.63 2.143c.51.413 1.113.698 1.757.826l.39.078-.642-9.159c-1.928-.348-7.006-1.53-8.424-4.517l1.061 5.277a9.227 9.227 0 003.227 5.352zm.613-10.887c.998-.233 1.77-.698 1.77-.698l-4.608-.985.263.49c.495.927 1.548 1.434 2.574 1.193zm11.116-1.194l.263-.489-4.608.985s.772.463 1.77.698c1.025.24 2.078-.266 2.575-1.194z" fill="#EAFC52"/><path d="M56.158 57.425l13.208-15.273-.62-.41a5.366 5.366 0 01-.584-.453l-13.41 15.506-7.98 2.703.061-2.812 5.08-1.64a6.172 6.172 0 002.736-1.799l.025-.029 12.13-13.823a5.113 5.113 0 01-.27-.831l-.057-.244c-.048-.205-.1-.409-.155-.61L53.81 51.967a6.16 6.16 0 01-2.736 1.799L46 55.404l-5.074-1.638a6.172 6.172 0 01-2.736-1.799L25.678 37.71c-.056.201-.109.405-.155.61l-.057.244a5.19 5.19 0 01-.27.83l12.092 13.78.063.073a6.16 6.16 0 002.736 1.798l.092.03 4.988 1.611.06 2.812-7.979-2.703-13.41-15.506a5.366 5.366 0 01-.583.454l-.621.409 13.208 15.273-7.43 8.408-1.97 2.077c.367.327.743.646 1.127.955l.789-.83 1.089-1.145 3.714-4.203 12.266 5.928.147 6.75.006.248v.002c.14.004.282.008.42.008.14 0 .281-.006.42-.008v-.002l.006-.248.147-6.75 12.264-5.928 3.714 4.203 1.08 1.154.783.835c.384-.31.762-.627 1.13-.956l-1.956-2.088-7.43-8.41zm-21.982 4.113l2.875-3.255 8.212 2.78.129 5.894-11.216-5.42zm12.435 5.42l.128-5.893 8.21-2.78 2.875 3.255-11.213 5.417z" fill="#EAFC52"/></svg>